<svg width="24" height="24" viewBox="0 0 24 24" fill="none" xmlns="http://www.w3.org/2000/svg">
<path fill-rule="evenodd" clip-rule="evenodd" d="M12 4C8.66879 4 5.96876 6.70004 5.96876 10.0312V15.2816C5.96876 15.3971 5.94875 15.5117 5.90963 15.6204L5.54791 16.625H18.4521L18.0904 15.6204C18.0513 15.5117 18.0313 15.3971 18.0313 15.2816V10.0312C18.0313 6.70004 15.3312 4 12 4ZM3.96876 10.0312C3.96876 5.59547 7.56422 2 12 2C16.4358 2 20.0313 5.59547 20.0313 10.0312V15.1071L20.8159 17.2862C20.9262 17.5926 20.8804 17.9336 20.6932 18.2C20.5059 18.4664 20.2007 18.625 19.875 18.625H4.12501C3.79935 18.625 3.4941 18.4664 3.30685 18.2C3.1196 17.9336 3.07382 17.5926 3.18414 17.2862L3.96876 15.1071V10.0312Z" fill="#9098B1"/>
<path fill-rule="evenodd" clip-rule="evenodd" d="M8.625 16.625C9.17728 16.625 9.625 17.0727 9.625 17.625C9.625 18.9368 10.6882 20 12 20C13.3118 20 14.375 18.9368 14.375 17.625C14.375 17.0727 14.8227 16.625 15.375 16.625C15.9273 16.625 16.375 17.0727 16.375 17.625C16.375 20.0414 14.4164 22 12 22C9.58359 22 7.625 20.0414 7.625 17.625C7.625 17.0727 8.07272 16.625 8.625 16.625Z" fill="#9098B1"/>
</svg>
